HIERARCHY
ROOT Hips
{
    OFFSET   0.000000   0.000000   0.000000
    CHANNELS 6 Xposition Yposition Zposition Zrotation Xrotation Yrotation
    JOINT Chest
    {
        OFFSET   0.000000   8.007240   0.000000
        CHANNELS 3 Zrotation Xrotation Yrotation
        JOINT Chest2
        {
            OFFSET   0.000000  22.077100   0.000000
            CHANNELS 3 Zrotation Xrotation Yrotation
            JOINT Neck
            {
                OFFSET   0.000000  23.254800   0.000000
                CHANNELS 3 Zrotation Xrotation Yrotation
                JOINT Head
                {
                    OFFSET   0.000000  14.370000   1.956600
                    CHANNELS 3 Zrotation Xrotation Yrotation
                    End Site
                    {
                        OFFSET   0.000000  19.566000   0.000000
                    }
                }
            }
            JOINT LeftCollar
            {
                OFFSET   3.911900  19.017000  -0.467064
                CHANNELS 3 Zrotation Xrotation Yrotation
                JOINT LeftShoulder
                {
                    OFFSET  10.383700   0.000000   0.000000
                    CHANNELS 3 Zrotation Xrotation Yrotation
                    JOINT LeftElbow
                    {
                        OFFSET  26.662100   0.001476   0.000517
                        CHANNELS 3 Zrotation Xrotation Yrotation
                        JOINT LeftWrist
                        {
                            OFFSET  28.869000  -0.000025  -0.000106
                            CHANNELS 3 Zrotation Xrotation Yrotation
                            JOINT LeftFinger0
                            {
                                OFFSET   2.044660  -2.323460   3.252850
                                CHANNELS 3 Zrotation Xrotation Yrotation
                                JOINT LeftFinger01
                                {
                                    OFFSET   3.088130   0.000000   0.000000
                                    CHANNELS 3 Zrotation Xrotation Yrotation
                                    JOINT LeftFinger02
                                    {
                                        OFFSET   2.639460   0.000000   0.000000
                                        CHANNELS 3 Zrotation Xrotation Yrotation
                                        End Site
                                        {
                                            OFFSET   2.582190   0.000000   0.000000
                                        }
                                    }
                                }
                            }
                            JOINT LeftFinger1
                            {
                                OFFSET   8.364480   0.000000   3.252850
                                CHANNELS 3 Zrotation Xrotation Yrotation
                                JOINT LeftFinger11
                                {
                                    OFFSET   4.646930   0.000000   0.000000
                                    CHANNELS 3 Zrotation Xrotation Yrotation
                                    JOINT LeftFinger12
                                    {
                                        OFFSET   2.323460   0.000000   0.000000
                                        CHANNELS 3 Zrotation Xrotation Yrotation
                                        End Site
                                        {
                                            OFFSET   2.273050   0.000000   0.000000
                                        }
                                    }
                                }
                            }
                            JOINT LeftFinger2
                            {
                                OFFSET   8.364490   0.000015   1.078090
                                CHANNELS 3 Zrotation Xrotation Yrotation
                                JOINT LeftFinger21
                                {
                                    OFFSET   5.111620   0.000000   0.000000
                                    CHANNELS 3 Zrotation Xrotation Yrotation
                                    JOINT LeftFinger22
                                    {
                                        OFFSET   2.788160   0.000016   0.000000
                                        CHANNELS 3 Zrotation Xrotation Yrotation
                                        End Site
                                        {
                                            OFFSET   2.727660   0.000000   0.000000
                                        }
                                    }
                                }
                            }
                            JOINT LeftFinger3
                            {
                                OFFSET   7.899780   0.000017  -1.078090
                                CHANNELS 3 Zrotation Xrotation Yrotation
                                JOINT LeftFinger31
                                {
                                    OFFSET   4.646930   0.000000   0.000000
                                    CHANNELS 3 Zrotation Xrotation Yrotation
                                    JOINT LeftFinger32
                                    {
                                        OFFSET   2.323470   0.000000   0.000000
                                        CHANNELS 3 Zrotation Xrotation Yrotation
                                        End Site
                                        {
                                            OFFSET   2.273050   0.000000   0.000000
                                        }
                                    }
                                }
                            }
                            JOINT LeftFinger4
                            {
                                OFFSET   7.435090   0.000000  -3.252850
                                CHANNELS 3 Zrotation Xrotation Yrotation
                                JOINT LeftFinger41
                                {
                                    OFFSET   3.717550   0.000000   0.000000
                                    CHANNELS 3 Zrotation Xrotation Yrotation
                                    JOINT LeftFinger42
                                    {
                                        OFFSET   1.858770   0.000000   0.000000
                                        CHANNELS 3 Zrotation Xrotation Yrotation
                                        End Site
                                        {
                                            OFFSET   1.818440   0.000000   0.000000
                                        }
                                    }
                                }
                            }
                        }
                    }
                }
            }
            JOINT RightCollar
            {
                OFFSET  -3.911900  19.017000  -0.467063
                CHANNELS 3 Zrotation Xrotation Yrotation
                JOINT RightShoulder
                {
                    OFFSET -10.383700   0.000019   0.000000
                    CHANNELS 3 Zrotation Xrotation Yrotation
                    JOINT RightElbow
                    {
                        OFFSET -26.662100   0.001175   0.000102
                        CHANNELS 3 Zrotation Xrotation Yrotation
                        JOINT RightWrist
                        {
                            OFFSET -28.869000   0.000016  -0.000079
                            CHANNELS 3 Zrotation Xrotation Yrotation
                            JOINT RightFinger0
                            {
                                OFFSET  -2.044660  -2.323490   3.252850
                                CHANNELS 3 Zrotation Xrotation Yrotation
                                JOINT RightFinger01
                                {
                                    OFFSET  -3.088140   0.000000   0.000000
                                    CHANNELS 3 Zrotation Xrotation Yrotation
                                    JOINT RightFinger02
                                    {
                                        OFFSET  -2.639460   0.000000   0.000000
                                        CHANNELS 3 Zrotation Xrotation Yrotation
                                        End Site
                                        {
                                            OFFSET  -2.582190   0.000000   0.000000
                                        }
                                    }
                                }
                            }
                            JOINT RightFinger1
                            {
                                OFFSET  -8.364480   0.000000   3.252850
                                CHANNELS 3 Zrotation Xrotation Yrotation
                                JOINT RightFinger11
                                {
                                    OFFSET  -4.646930   0.000000   0.000000
                                    CHANNELS 3 Zrotation Xrotation Yrotation
                                    JOINT RightFinger12
                                    {
                                        OFFSET  -2.323470   0.000000   0.000000
                                        CHANNELS 3 Zrotation Xrotation Yrotation
                                        End Site
                                        {
                                            OFFSET  -2.273050   0.000000   0.000000
                                        }
                                    }
                                }
                            }
                            JOINT RightFinger2
                            {
                                OFFSET  -8.364480   0.000000   1.078090
                                CHANNELS 3 Zrotation Xrotation Yrotation
                                JOINT RightFinger21
                                {
                                    OFFSET  -5.111620   0.000000   0.000000
                                    CHANNELS 3 Zrotation Xrotation Yrotation
                                    JOINT RightFinger22
                                    {
                                        OFFSET  -2.788160   0.000000   0.000000
                                        CHANNELS 3 Zrotation Xrotation Yrotation
                                        End Site
                                        {
                                            OFFSET  -2.727660   0.000000   0.000000
                                        }
                                    }
                                }
                            }
                            JOINT RightFinger3
                            {
                                OFFSET  -7.899780   0.000000  -1.078090
                                CHANNELS 3 Zrotation Xrotation Yrotation
                                JOINT RightFinger31
                                {
                                    OFFSET  -4.646930   0.000000   0.000000
                                    CHANNELS 3 Zrotation Xrotation Yrotation
                                    JOINT RightFinger32
                                    {
                                        OFFSET  -2.323470   0.000000   0.000000
                                        CHANNELS 3 Zrotation Xrotation Yrotation
                                        End Site
                                        {
                                            OFFSET  -2.273050   0.000000   0.000000
                                        }
                                    }
                                }
                            }
                            JOINT RightFinger4
                            {
                                OFFSET  -7.435090   0.000000  -3.252850
                                CHANNELS 3 Zrotation Xrotation Yrotation
                                JOINT RightFinger41
                                {
                                    OFFSET  -3.717550   0.000000   0.000000
                                    CHANNELS 3 Zrotation Xrotation Yrotation
                                    JOINT RightFinger42
                                    {
                                        OFFSET  -1.858770   0.000000   0.000000
                                        CHANNELS 3 Zrotation Xrotation Yrotation
                                        End Site
                                        {
                                            OFFSET  -1.818440   0.000000   0.000000
                                        }
                                    }
                                }
                            }
                        }
                    }
                }
            }
        }
    }
    JOINT LeftHip
    {
        OFFSET   9.783040   0.000000   0.000000
        CHANNELS 3 Zrotation Xrotation Yrotation
        JOINT LeftKnee
        {
            OFFSET   0.000032 -41.789100  -0.002222
            CHANNELS 3 Zrotation Xrotation Yrotation
            JOINT LeftAnkle
            {
                OFFSET   0.000087 -41.133200  -0.000135
                CHANNELS 3 Zrotation Xrotation Yrotation
                JOINT LeftToe
                {
                    OFFSET   0.000000  -6.358960  14.674500
                    CHANNELS 3 Zrotation Xrotation Yrotation
                    End Site
                    {
                        OFFSET   0.000000   0.000000   3.913200
                    }
                }
            }
        }
    }
    JOINT RightHip
    {
        OFFSET  -9.783040   0.000000   0.000000
        CHANNELS 3 Zrotation Xrotation Yrotation
        JOINT RightKnee
        {
            OFFSET   0.000047 -41.789100  -0.000896
            CHANNELS 3 Zrotation Xrotation Yrotation
            JOINT RightAnkle
            {
                OFFSET  -0.000117 -41.133300  -0.000248
                CHANNELS 3 Zrotation Xrotation Yrotation
                JOINT RightToe
                {
                    OFFSET   0.000000  -6.358970  14.674500
                    CHANNELS 3 Zrotation Xrotation Yrotation
                    End Site
                    {
                        OFFSET   0.000000   0.000000   3.913200
                    }
                }
            }
        }
    }
}
MOTION
Frames: 5
Frame Time:   0.016667
 -1.046460  89.623300  -2.263710  -0.909400  -0.890344   0.250088   0.719340   1.380750  -1.102090   1.465750   2.747310  -2.222400   0.710029   0.830051  -0.017444   1.170770   1.672310   8.686990  -6.831770   2.743060   0.158784 -69.759900  12.434600  -8.161140  -0.705406  -6.028660  -6.049810   1.993610  -7.961860   2.903390  46.702400  38.893400 -68.164800 -27.049200  -0.000904   0.004408  -8.528080  -0.002159   0.005215 -33.200700   2.213180  -3.356730 -27.204400  -0.005263   0.011895 -19.043700  -0.004472  -0.013526 -28.206600  -2.631470   4.890730 -34.464600  -0.003598  -0.008007 -22.953400  -0.002406  -0.004894 -27.552100  -4.067710   7.727530 -30.983000  -0.006456   0.008210 -20.640800  -0.005904   0.000685 -31.934600  -4.642410   7.397060 -48.350600  -0.007591   0.001754 -32.201600  -0.004405  -0.003949  10.591500  -0.792227   7.937690  65.928100   6.707040  -1.938950  -0.193243  -6.714890   6.188770  -3.447670  -9.024570   5.869590 -48.066300  37.976100  78.028200  15.659300  -0.002293   0.000701   2.829660  -0.001072  -0.004804  20.130700   2.761330   7.487310  16.618400  -0.000215   0.004115  11.632900  -0.000197  -0.000098  20.310300   1.846520   4.975660  20.390500   0.000000   0.005248  13.580100   0.010017   0.000000  17.644200   1.612590   5.056150  17.715400  -0.000630  -0.007065  11.798500  -0.000424   0.003030  21.118400   1.400950   3.621960  31.744000   0.001565   0.005802  21.141500   0.000472  -0.003272   2.593910   1.619420   2.178030   1.108550   0.077929  13.002900  -4.641360  -0.926965   3.661240   0.000000   0.000000  -0.000000  -0.212946  -1.042390  -2.509870   1.056760   2.362820 -13.493400  -2.091960  -0.969673  -5.900760  -0.000000   0.000000  -0.000000
 -1.042800  89.623300  -2.257680  -0.909318  -0.890320   0.248692   0.719444   1.380740  -1.102120   1.465970   2.747280  -2.222450   0.710999   0.830050  -0.017393   1.171440   1.672210   8.686990  -6.831020   2.742940   0.153016 -69.761600  12.432500  -8.154970  -0.712515  -6.024850  -6.049660   1.970800  -7.956840   2.902020  46.699200  38.883700 -68.145400 -27.049200  -0.000902   0.004414  -8.528060  -0.002161   0.005217 -33.193900   2.213190  -3.361200 -27.204400  -0.005261   0.011895 -19.043900  -0.004472  -0.013525 -28.207300  -2.627200   4.882760 -34.461700  -0.003596  -0.008009 -22.951500  -0.002405  -0.004893 -27.552200  -4.067720   7.727520 -30.982400  -0.006456   0.008208 -20.638500  -0.005902   0.000685 -31.940400  -4.642360   7.397040 -48.359500  -0.007590   0.001755 -32.207500  -0.004404  -0.003948  10.592000  -0.796085   7.937890  65.928800   6.707100  -1.944740  -0.186970  -6.715220   6.177850  -3.442820  -9.024440   5.858250 -48.053500  37.974800  78.022500  15.692700  -0.002292   0.000683   2.846340  -0.001074  -0.004804  20.149900   2.753500   7.456770  16.633000  -0.000217   0.004118  11.643100  -0.000198  -0.000097  20.329700   1.826070   4.914590  20.407800   0.000000   0.005252  13.591600   0.010015  -0.000000  17.667600   1.595450   4.994050  17.737000  -0.000631  -0.007070  11.812900  -0.000422   0.003031  21.141800   1.392330   3.597790  31.778300   0.001564   0.005801  21.164300   0.000471  -0.003271   2.592840   1.642540   2.182110   1.109350   0.039911  13.003600  -4.637230  -0.909050   3.662040  -0.000000   0.000000  -0.000000  -0.214363  -0.882003  -2.506280   1.064610   2.201290 -13.493700  -2.091710  -0.969925  -5.900770   0.000000   0.000000   0.000000
 -1.036570  89.623300  -2.247140  -0.909264  -0.890265   0.245541   0.719620   1.380690  -1.102140   1.466320   2.747180  -2.222510   0.715009   0.830043  -0.017343   1.176010   1.672040   8.686990  -6.830100   2.742820   0.143533 -69.763200  12.430300  -8.148800  -0.723123  -6.021040  -6.048900   1.937190  -7.951830   2.900650  46.686100  38.870900 -68.119900 -27.049300  -0.000899   0.004419  -8.528010  -0.002164   0.005223 -33.184500   2.213220  -3.365670 -27.204400  -0.005257   0.011895 -19.044100  -0.004469  -0.013523 -28.208600  -2.620150   4.869700 -34.455000  -0.003591  -0.008013 -22.947000  -0.002401  -0.004893 -27.552400  -4.067750   7.727480 -30.978600  -0.006454   0.008204 -20.631800  -0.005898   0.000685 -31.946200  -4.642310   7.397010 -48.368300  -0.007587   0.001759 -32.213300  -0.004402  -0.003944  10.593000  -0.802818   7.938100  65.930100   6.707160  -1.955710  -0.177288  -6.716830   6.159310  -3.434120  -9.022550   5.838830 -48.035900  37.973500  78.016800  15.726100  -0.002290   0.000665   2.863030  -0.001075  -0.004801  20.178800   2.745660   7.426220  16.655800  -0.000220   0.004122  11.659000  -0.000200  -0.000091  20.358300   1.805610   4.853510  20.434800   0.000000   0.005259  13.609600   0.010012   0.000000  17.702200   1.578300   4.931950  17.770200  -0.000634  -0.007081  11.835000  -0.000421   0.003032  21.179400   1.383670   3.566110  31.833800   0.001560   0.005800  21.201300   0.000468  -0.003271   2.591670   1.666490   2.188630   1.110150   0.001894  13.004300  -4.633100  -0.891135   3.662850  -0.000000   0.000000  -0.000000  -0.218188  -0.666798  -2.498600   1.074090   1.996200 -13.497600  -2.091590  -0.971485  -5.900770   0.000000   0.000000   0.000000
 -1.031240  89.623300  -2.237610  -0.909366  -0.890184   0.240660   0.719770   1.380570  -1.102110   1.466620   2.746920  -2.222440   0.723657   0.829712  -0.017402   1.189250   1.671890   8.682420  -6.831240   2.742820   0.136397 -69.765500  12.446200  -8.149670  -0.731339  -6.046970  -6.046000   1.920920  -7.958540   2.910930  46.673700  38.867800 -68.112100 -27.049300  -0.000895   0.004405  -8.527920  -0.002162   0.005231 -33.181100   2.213270  -3.362720 -27.204500  -0.005253   0.011897 -19.044500  -0.004462  -0.013520 -28.209600  -2.614530   4.859480 -34.442300  -0.003581  -0.008019 -22.938600  -0.002396  -0.004892 -27.552300  -4.067780   7.727430 -30.960500  -0.006451   0.008198 -20.618600  -0.005891   0.000685 -31.935600  -4.642330   7.396950 -48.352800  -0.007581   0.001766 -32.202900  -0.004399  -0.003937  10.593800  -0.808980   7.937930  65.936000   6.707150  -1.966820  -0.170251  -6.729630   6.143540  -3.424310  -9.002740   5.821450 -48.042000  37.977100  78.030400  15.721500  -0.002284   0.000693   2.860710  -0.001073  -0.004793  20.196700   2.748650   7.427300  16.670800  -0.000222   0.004123  11.669500  -0.000201  -0.000078  20.375200   1.807900   4.855330  20.452000   0.000000   0.005265  13.621100   0.010012  -0.000000  17.721700   1.580680   4.933820  17.789900  -0.000640  -0.007094  11.848100  -0.000424   0.003032  21.206900   1.383640   3.560660  31.875000   0.001555   0.005802  21.228700   0.000465  -0.003270   2.591560   1.667460   2.193590   1.108260   0.010348  13.003900  -4.632650  -0.901284   3.662520  -0.000000   0.000000  -0.000000  -0.226081  -0.602853  -2.485740   1.076220   1.945310 -13.508800  -2.092170  -0.975037  -5.897120  -0.000000   0.000000  -0.000000
 -1.025950  89.623300  -2.227610  -0.909619  -0.890090   0.236042   0.719918   1.380420  -1.102060   1.466900   2.746630  -2.222330   0.734351   0.829172  -0.017499   1.206770   1.671840   8.670970  -6.833470   2.742840   0.129049 -69.769700  12.468600  -8.150740  -0.739093  -6.085210  -6.042500   1.909900  -7.965250   2.921210  46.668400  38.867900 -68.110600 -27.049300  -0.000893   0.004386  -8.527810  -0.002157   0.005237 -33.180200   2.213300  -3.359780 -27.204800  -0.005247   0.011901 -19.044700  -0.004454  -0.013515 -28.210500  -2.609300   4.849970 -34.433500  -0.003568  -0.008027 -22.932700  -0.002388  -0.004891 -27.552100  -4.067830   7.727370 -30.939500  -0.006448   0.008189 -20.605700  -0.005882   0.000686 -31.924600  -4.642410   7.396890 -48.337000  -0.007573   0.001775 -32.192500  -0.004396  -0.003928  10.594500  -0.815239   7.936700  65.945300   6.707100  -1.980360  -0.164235  -6.741240   6.128010  -3.420500  -8.975210   5.804510 -48.053100  37.980400  78.044100  15.712800  -0.002277   0.000720   2.856370  -0.001069  -0.004784  20.212600   2.751630   7.428370  16.683800  -0.000224   0.004126  11.678600  -0.000203  -0.000059  20.391300   1.810190   4.857150  20.468100   0.000000   0.005274  13.631800   0.010011   0.000000  17.739300   1.583070   4.935680  17.807500  -0.000649  -0.007109  11.859800  -0.000430   0.003032  21.233100   1.383620   3.556100  31.914200   0.001548   0.005803  21.254800   0.000462  -0.003269   2.591570   1.667590   2.197600   1.104070   0.030287  13.003300  -4.631780  -0.920916   3.661840   0.000000   0.000000   0.000000  -0.231583  -0.593721  -2.476980   1.076880   1.937950 -13.520900  -2.092850  -0.980157  -5.890150   0.000000   0.000000   0.000000
